<svg width="24" height="24" viewBox="0 0 24 24" fill="none" xmlns="http://www.w3.org/2000/svg">
<mask id="mask0_612_5655" style="mask-type:alpha" maskUnits="userSpaceOnUse" x="6" y="6" width="13" height="12">
<path fill-rule="evenodd" clip-rule="evenodd" d="M6.65694 6.34319C6.26641 6.73371 6.26641 7.36688 6.65694 7.7574L10.8995 12L6.65679 16.2427C6.26626 16.6332 6.26626 17.2664 6.65679 17.6569C7.04731 18.0474 7.68047 18.0474 8.071 17.6569L12.3137 13.4142L16.5564 17.6569C16.947 18.0474 17.5801 18.0474 17.9706 17.6569C18.3612 17.2664 18.3612 16.6332 17.9706 16.2427L13.7279 12L17.9705 7.75741C18.361 7.36689 18.361 6.73372 17.9705 6.3432C17.58 5.95267 16.9468 5.95267 16.5563 6.3432L12.3137 10.5858L8.07115 6.34319C7.68063 5.95266 7.04746 5.95266 6.65694 6.34319Z" fill="#C4C4C4"/>
</mask>
<g mask="url(#mask0_612_5655)">
<rect width="24" height="24" fill="#ABAEB3"/>
</g>
</svg>
